<svg width="111" height="101" viewBox="0 0 111 101" fill="none" xmlns="http://www.w3.org/2000/svg">
<g clip-path="url(#clip0_77_1694)">
<g filter="url(#filter0_d_77_1694)">
<path d="M79.6827 57.403C72.8883 49.1984 64.3002 44.6798 55.4999 44.6798C46.6997 44.6798 38.1114 49.1984 31.3174 57.403C25.2104 64.7778 21.5645 74.0722 21.5645 82.2654C21.5645 86.2455 22.781 89.277 25.1802 91.2763C27.5482 93.2498 30.6746 93.9173 34.1625 93.9171C37.8739 93.9171 41.995 93.1612 46.044 92.4183C49.5823 91.7691 52.9242 91.156 55.5001 91.156C57.7234 91.156 60.8581 91.7379 64.1762 92.354C71.9309 93.794 80.7206 95.4258 85.798 91.2035C88.2118 89.1964 89.4356 86.189 89.4356 82.2654C89.4358 74.0722 85.7899 64.7778 79.6827 57.403Z" fill="#FF8A00"/>
<path d="M80.3772 12.8511C77.8912 9.18527 74.3315 7.08301 70.6107 7.08301C66.8896 7.08301 63.3301 9.18547 60.8441 12.8511C58.5605 16.2186 57.3027 20.6409 57.3027 25.3034C57.3027 29.966 58.5603 34.3883 60.8441 37.7558C63.3301 41.4214 66.8898 43.5239 70.6107 43.5239C74.3317 43.5239 77.8912 41.4214 80.3772 37.7558C82.6608 34.3883 83.9186 29.966 83.9186 25.3034C83.9186 20.6409 82.661 16.2184 80.3772 12.8511Z" fill="#FF8A00"/>
<path d="M50.1558 12.8509C47.6698 9.18508 44.1103 7.08282 40.3892 7.08282C36.6682 7.08282 33.1084 9.18528 30.6227 12.8509C28.3391 16.2184 27.0813 20.6407 27.0813 25.3033C27.0813 29.9658 28.3389 34.3881 30.6227 37.7557C33.1086 41.4214 36.6682 43.5239 40.3892 43.5239C44.1103 43.5239 47.6698 41.4214 50.1558 37.7557C52.4394 34.3881 53.6971 29.966 53.6971 25.3033C53.697 20.6407 52.4394 16.2182 50.1558 12.8509Z" fill="#FF8A00"/>
<path d="M105.404 41.4519C104.402 38.0424 102.254 35.5649 99.3561 34.4762C97.024 33.6002 94.3915 33.7487 91.9434 34.8946C88.5697 36.4735 85.8121 39.734 84.3782 43.8396C83.2064 47.1947 83.0603 50.741 83.967 53.8256C84.9691 57.2352 87.1172 59.7126 90.0154 60.8013C91.0184 61.1781 92.0765 61.3653 93.1519 61.3653C94.5773 61.3653 96.0329 61.0361 97.4283 60.3829C100.802 58.804 103.56 55.5436 104.994 51.4381V51.4379C106.165 48.083 106.311 44.5366 105.404 41.4519Z" fill="#FF8A00"/>
<path d="M26.622 43.8393C25.1878 39.7336 22.4303 36.4734 19.0568 34.8945C16.6085 33.7486 13.9758 33.6003 11.6438 34.4761C8.74564 35.565 6.59754 38.0425 5.59538 41.4518C4.68869 44.5365 4.83484 48.0829 6.00662 51.4378V51.438C7.44092 55.5437 10.1983 58.8039 13.5718 60.3828C14.9675 61.0359 16.4229 61.3652 17.8483 61.3652C18.9236 61.3652 19.982 61.1778 20.9847 60.8012C23.8833 59.7123 26.0312 57.2348 27.0334 53.8255C27.9397 50.741 27.7935 47.1946 26.622 43.8393Z" fill="#FF8A00"/>
</g>
</g>
<defs>
<filter id="filter0_d_77_1694" x="-0.992432" y="5.08282" width="112.985" height="98.8343" filterUnits="userSpaceOnUse" color-interpolation-filters="sRGB">
<feFlood flood-opacity="0" result="BackgroundImageFix"/>
<feColorMatrix in="SourceAlpha" type="matrix" values="0 0 0 0 0 0 0 0 0 0 0 0 0 0 0 0 0 0 127 0" result="hardAlpha"/>
<feOffset dy="4"/>
<feGaussianBlur stdDeviation="3"/>
<feComposite in2="hardAlpha" operator="out"/>
<feColorMatrix type="matrix" values="0 0 0 0 0 0 0 0 0 0 0 0 0 0 0 0 0 0 0.25 0"/>
<feBlend mode="normal" in2="BackgroundImageFix" result="effect1_dropShadow_77_1694"/>
<feBlend mode="normal" in="SourceGraphic" in2="effect1_dropShadow_77_1694" result="shape"/>
</filter>
<clipPath id="clip0_77_1694">
<rect width="111" height="101" fill="white"/>
</clipPath>
</defs>
</svg>
