<svg width="111" height="96" viewBox="0 0 111 96" fill="none" xmlns="http://www.w3.org/2000/svg">
<g filter="url(#filter0_d_77_2400)">
<path d="M79.6827 52.403C72.8883 44.1984 64.3002 39.6798 55.4999 39.6798C46.6997 39.6798 38.1114 44.1984 31.3174 52.403C25.2104 59.7778 21.5645 69.0722 21.5645 77.2654C21.5645 81.2455 22.781 84.277 25.1802 86.2763C27.5482 88.2498 30.6746 88.9173 34.1625 88.9171C37.8739 88.9171 41.995 88.1612 46.044 87.4183C49.5823 86.7691 52.9242 86.156 55.5001 86.156C57.7234 86.156 60.8581 86.7379 64.1762 87.354C71.9309 88.794 80.7206 90.4258 85.798 86.2035C88.2118 84.1963 89.4356 81.189 89.4356 77.2654C89.4358 69.0722 85.7899 59.7778 79.6827 52.403Z" fill="#FF8A00"/>
<path d="M80.3772 7.85105C77.8912 4.18526 74.3315 2.083 70.6107 2.083C66.8896 2.083 63.3301 4.18546 60.8441 7.85105C58.5605 11.2186 57.3027 15.6409 57.3027 20.3034C57.3027 24.966 58.5603 29.3883 60.8441 32.7558C63.3301 36.4214 66.8898 38.5239 70.6107 38.5239C74.3317 38.5239 77.8912 36.4214 80.3772 32.7558C82.6608 29.3883 83.9186 24.966 83.9186 20.3034C83.9186 15.6409 82.661 11.2184 80.3772 7.85105Z" fill="#FF8A00"/>
<path d="M50.1558 7.85087C47.6698 4.18508 44.1103 2.08282 40.3892 2.08282C36.6682 2.08282 33.1084 4.18528 30.6227 7.85087C28.3391 11.2184 27.0813 15.6407 27.0813 20.3033C27.0813 24.9658 28.3389 29.3881 30.6227 32.7557C33.1086 36.4214 36.6682 38.5239 40.3892 38.5239C44.1103 38.5239 47.6698 36.4214 50.1558 32.7557C52.4394 29.3881 53.6971 24.966 53.6971 20.3033C53.697 15.6407 52.4394 11.2182 50.1558 7.85087Z" fill="#FF8A00"/>
<path d="M105.404 36.452C104.402 33.0424 102.254 30.565 99.3561 29.4762C97.024 28.6002 94.3915 28.7487 91.9434 29.8946C88.5697 31.4736 85.8121 34.734 84.3782 38.8397C83.2064 42.1948 83.0603 45.741 83.967 48.8256C84.9691 52.2352 87.1172 54.7126 90.0154 55.8014C91.0184 56.1781 92.0765 56.3653 93.1519 56.3653C94.5773 56.3653 96.0329 56.0361 97.4283 55.383C100.802 53.804 103.56 50.5436 104.994 46.4381V46.4379C106.165 43.083 106.311 39.5366 105.404 36.452Z" fill="#FF8A00"/>
<path d="M26.622 38.8393C25.1878 34.7336 22.4303 31.4734 19.0568 29.8945C16.6085 28.7486 13.9758 28.6003 11.6438 29.4761C8.74564 30.565 6.59754 33.0425 5.59538 36.4518C4.68869 39.5365 4.83484 43.0829 6.00662 46.4378V46.438C7.44092 50.5437 10.1983 53.8039 13.5718 55.3828C14.9675 56.0359 16.4229 56.3652 17.8483 56.3652C18.9236 56.3652 19.982 56.1778 20.9847 55.8012C23.8833 54.7123 26.0312 52.2348 27.0334 48.8255C27.9397 45.741 27.7935 42.1946 26.622 38.8393Z" fill="#FF8A00"/>
</g>
<defs>
<filter id="filter0_d_77_2400" x="-0.992432" y="0.0828247" width="112.985" height="98.8343" filterUnits="userSpaceOnUse" color-interpolation-filters="sRGB">
<feFlood flood-opacity="0" result="BackgroundImageFix"/>
<feColorMatrix in="SourceAlpha" type="matrix" values="0 0 0 0 0 0 0 0 0 0 0 0 0 0 0 0 0 0 127 0" result="hardAlpha"/>
<feOffset dy="4"/>
<feGaussianBlur stdDeviation="3"/>
<feComposite in2="hardAlpha" operator="out"/>
<feColorMatrix type="matrix" values="0 0 0 0 0 0 0 0 0 0 0 0 0 0 0 0 0 0 0.25 0"/>
<feBlend mode="normal" in2="BackgroundImageFix" result="effect1_dropShadow_77_2400"/>
<feBlend mode="normal" in="SourceGraphic" in2="effect1_dropShadow_77_2400" result="shape"/>
</filter>
</defs>
</svg>
